<svg width="58" height="58" viewBox="0 0 58 58" fill="none" xmlns="http://www.w3.org/2000/svg">
<path d="M55.4307 58H3.56989C3.15534 58 2.75549 57.8324 2.46116 57.5367C2.16684 57.241 2 56.8394 2 56.423C2 46.5539 7.24203 37.4342 15.7511 32.4986C24.2581 27.563 34.7419 27.563 43.2489 32.4986C51.7584 37.4343 57 46.5539 57 56.423C57 56.8394 56.8332 57.2411 56.5388 57.5367C56.2445 57.8324 55.8452 58 55.4307 58ZM5.19129 54.8459H53.8093C53.2721 46.4952 48.5256 38.9992 41.2231 34.9727C33.923 30.9439 25.0776 30.9439 17.7775 34.9727C10.475 38.9991 5.72819 46.4952 5.19129 54.8459ZM29.5003 27.6988C25.8429 27.6988 22.3378 26.24 19.7525 23.6428C17.167 21.0456 15.7124 17.5244 15.7124 13.8506C15.7124 10.1769 17.167 6.65555 19.7525 4.05596C22.3379 1.45876 25.8432 0 29.5003 0C33.1574 0 36.6628 1.45876 39.2481 4.05842C41.836 6.65561 43.2882 10.1768 43.2882 13.8506C43.2833 17.5221 41.8287 21.0431 39.2457 23.6383C36.6602 26.2355 33.155 27.6967 29.4997 27.6992L29.5003 27.6988ZM29.5003 3.1537C26.6769 3.1537 23.9688 4.2823 21.9723 6.2881C19.9756 8.29391 18.8521 11.0143 18.8521 13.8503C18.8521 16.6863 19.9756 19.4069 21.9723 21.4125C23.969 23.4184 26.6771 24.5444 29.5003 24.5469C32.3237 24.5469 35.0318 23.4184 37.0283 21.4125C39.025 19.4067 40.1485 16.6863 40.1485 13.8503C40.1436 11.0141 39.0226 8.29618 37.0258 6.29062C35.0291 4.28507 32.3234 3.15868 29.5003 3.1537Z" fill="#FFC800"/>
</svg>
