<svg width="58" height="58" viewBox="0 0 58 58" fill="none" xmlns="http://www.w3.org/2000/svg">
<g clip-path="url(#clip0_13_603)">
<path d="M28.9999 30.1612C32.8161 30.1825 36.2712 27.8991 37.7473 24.3803C39.2235 20.858 38.4306 16.7976 35.7366 14.0899C33.0461 11.3853 28.9893 10.5676 25.4597 12.0225C21.9301 13.4775 19.6292 16.9184 19.6292 20.7346C19.6186 25.9243 23.8101 30.1404 28.9999 30.1612ZM28.9999 14.9353C31.3506 14.9141 33.4816 16.3124 34.3985 18.4789C35.3118 20.6419 34.8304 23.1447 33.1736 24.8156C31.5204 26.4866 29.0212 26.9927 26.8475 26.0971C24.674 25.2051 23.2544 23.0846 23.2544 20.734C23.2438 19.2047 23.8456 17.732 24.9217 16.6417C26.0014 15.5549 27.4671 14.9389 28.9999 14.9353Z" fill="#FFC800"/>
<path d="M4.53125 47.486C4.53125 54.3184 17.2188 58.0004 29 58.0004C40.7812 58.0004 53.4688 54.3754 53.4688 47.486C53.4688 43.461 48.8454 40.0732 41.199 38.2958V38.2993C45.5993 33.6902 48.4526 27.8212 49.3553 21.5128C49.8403 16.1922 48.0242 10.9142 44.3709 7.01283C40.4415 2.64444 34.8761 0.102678 29 0C23.1235 0.109738 17.555 2.65504 13.6291 7.03404C9.97582 10.9316 8.15969 16.2098 8.64472 21.534C9.54742 27.8424 12.4007 33.7086 16.801 38.3178C9.15449 40.0737 4.53125 43.5002 4.53125 47.486ZM16.3306 9.42354C19.5627 5.81268 24.1541 3.70991 29 3.62499C33.857 3.71703 38.4594 5.83044 41.6875 9.46251C44.6611 12.5919 46.1444 16.8505 45.7656 21.1513C44.7673 30.9216 36.2681 38.7308 29.0181 45.0745C21.7681 38.7308 13.2684 30.918 12.2706 21.1513C11.8812 16.8572 13.3539 12.5986 16.3133 9.46251L16.3306 9.42354ZM19.7008 41.3797C22.3098 44.0064 25.1383 46.4172 27.6199 48.6297L27.8004 48.7926H27.804C28.4872 49.3944 29.5138 49.3944 30.197 48.7926L30.3775 48.6297C32.9334 46.3995 35.6876 43.9887 38.2966 41.3797C45.7838 42.7214 49.8404 45.4579 49.8404 47.4509C49.8404 50.3325 41.9214 54.3398 28.9967 54.3398C16.0718 54.3398 8.15294 50.3325 8.15294 47.4509C8.15648 45.4932 12.2169 42.7568 19.7004 41.4151L19.7008 41.3797Z" fill="#FFC800"/>
</g>
<defs>
<clipPath id="clip0_13_603">
<rect width="58" height="58" fill="white"/>
</clipPath>
</defs>
</svg>
