<svg width="58" height="58" viewBox="0 0 58 58" fill="none" xmlns="http://www.w3.org/2000/svg">
<path d="M12.8032 24.1027H8.94681C7.88386 24.1027 7.01862 24.968 7.01862 26.0309V29.8873C7.01862 30.9502 7.88386 31.8155 8.94681 31.8155H12.8032C13.8661 31.8155 14.7314 30.9502 14.7314 29.8873V26.0309C14.7314 24.968 13.8661 24.1027 12.8032 24.1027ZM8.94681 29.8873V26.0309H12.8032V29.8873H8.94681Z" fill="#FFC800"/>
<path d="M24.3723 24.1027H20.5159C19.453 24.1027 18.5877 24.968 18.5877 26.0309V29.8873C18.5877 30.9502 19.453 31.8155 20.5159 31.8155H24.3723C25.4352 31.8155 26.3005 30.9502 26.3005 29.8873V26.0309C26.3005 24.968 25.4352 24.1027 24.3723 24.1027ZM20.5159 29.8873V26.0309H24.3723V29.8873H20.5159Z" fill="#FFC800"/>
<path d="M32.0851 31.8155H35.9414C37.0044 31.8155 37.8696 30.9502 37.8696 29.8873V26.0309C37.8696 24.968 37.0044 24.1027 35.9414 24.1027H32.0851C31.0221 24.1027 30.1569 24.968 30.1569 26.0309V29.8873C30.1569 30.9502 31.0221 31.8155 32.0851 31.8155ZM32.0851 26.0309H35.9414V29.8873H32.0851V26.0309Z" fill="#FFC800"/>
<path d="M43.6542 31.8155H47.5106C48.5735 31.8155 49.4388 30.9502 49.4388 29.8873V26.0309C49.4388 24.968 48.5735 24.1027 47.5106 24.1027H43.6542C42.5913 24.1027 41.726 24.968 41.726 26.0309V29.8873C41.726 30.9502 42.5913 31.8155 43.6542 31.8155ZM43.6542 26.0309H47.5106V29.8873H43.6542V26.0309Z" fill="#FFC800"/>
<path d="M12.8032 35.6719H8.94681C7.88386 35.6719 7.01862 36.5371 7.01862 37.6001V41.4565C7.01862 42.5194 7.88386 43.3846 8.94681 43.3846H12.8032C13.8661 43.3846 14.7314 42.5194 14.7314 41.4565V37.6001C14.7314 36.5371 13.8661 35.6719 12.8032 35.6719ZM8.94681 41.4565V37.6001H12.8032V41.4565H8.94681Z" fill="#FFC800"/>
<path d="M24.3723 35.6719H20.5159C19.453 35.6719 18.5877 36.5371 18.5877 37.6001V41.4565C18.5877 42.5194 19.453 43.3846 20.5159 43.3846H24.3723C25.4352 43.3846 26.3005 42.5194 26.3005 41.4565V37.6001C26.3005 36.5371 25.4352 35.6719 24.3723 35.6719ZM20.5159 41.4565V37.6001H24.3723V41.4565H20.5159Z" fill="#FFC800"/>
<path d="M55.2234 39.8941V9.64096C55.2234 7.51513 53.4928 5.78457 51.367 5.78457H47.5106V1.92819C47.5106 0.865249 46.6454 0 45.5824 0H42.6901C41.6272 0 40.7619 0.865249 40.7619 1.92819V5.78457H15.6954V1.92819C15.6954 0.865249 14.8302 0 13.7673 0H10.875C9.81202 0 8.94677 0.865249 8.94677 1.92819V5.78457H5.09039C2.96457 5.78457 1.23401 7.51513 1.23401 9.64096V48.2048C1.23401 50.3306 2.96457 52.0612 5.09039 52.0612H35.5799C37.5852 55.5127 41.3115 57.8457 45.5824 57.8457C51.9624 57.8457 57.1516 52.6565 57.1516 46.2766C57.1516 43.9194 56.4382 41.7261 55.2234 39.8941ZM42.6904 1.92819H45.5827V6.74386V6.74868V6.7535V11.5692H42.6904V1.92819ZM10.8756 1.92819H13.7679V6.74386V6.74868V6.7535V11.5692H10.8756V1.92819ZM3.16282 9.64096C3.16282 8.57801 4.02807 7.71277 5.09101 7.71277H8.94739V11.5691C8.94739 12.6321 9.81264 13.4973 10.8756 13.4973H13.7679C14.8308 13.4973 15.6961 12.6321 15.6961 11.5691V7.71277H40.7626V11.5691C40.7626 12.6321 41.6278 13.4973 42.6907 13.4973H45.583C46.646 13.4973 47.5112 12.6321 47.5112 11.5691V7.71277H51.3676C52.4305 7.71277 53.2958 8.57801 53.2958 9.64096V15.4255H3.16282V9.64096ZM5.09101 50.133C4.02807 50.133 3.16282 49.2677 3.16282 48.2048V17.3537H53.2958V37.6772C51.2471 35.8381 48.5476 34.7078 45.583 34.7078C42.6184 34.7078 39.919 35.8381 37.8703 37.6772V37.6C37.8703 36.5371 37.005 35.6718 35.9421 35.6718H32.0857C31.0227 35.6718 30.1575 36.5371 30.1575 37.6V41.4564C30.1575 42.5194 31.0227 43.3846 32.0857 43.3846H34.3947C34.1537 44.3102 34.0139 45.2767 34.0139 46.2769C34.0139 47.6315 34.2597 48.9258 34.6888 50.1333L5.09101 50.133ZM35.9421 39.8941C35.6143 40.3882 35.3299 40.9112 35.0792 41.4559H32.0857V37.5995H35.9421V39.8941ZM45.583 55.9176C40.266 55.9176 35.9421 51.5936 35.9421 46.2766C35.9421 40.9596 40.266 36.6356 45.583 36.6356C50.9 36.6356 55.224 40.9596 55.224 46.2766C55.224 51.5936 50.9 55.9176 45.583 55.9176Z" fill="#FFC800"/>
<path d="M49.7208 42.461L44.1363 48.0455L41.444 45.3532C41.068 44.9772 40.4582 44.9772 40.0799 45.3532C39.7039 45.7292 39.7039 46.3391 40.0799 46.7174L43.4542 50.0918C43.6422 50.2798 43.8881 50.3738 44.1363 50.3738C44.3822 50.3738 44.6304 50.2798 44.8185 50.0918L51.0849 43.8253C51.4609 43.4493 51.4609 42.8395 51.0849 42.4611C50.7065 42.0851 50.0992 42.085 49.7208 42.461Z" fill="#FFC800"/>
</svg>
